<svg xmlns="http://www.w3.org/2000/svg" viewBox="0 0 855 220.96"><defs><style>.cls-1{fill:#1d1d1b;}.cls-2{fill:#d8d7d7;}.cls-3{fill:#00833b;}.cls-4{fill:#fddf14;}.cls-5{fill:#13331f;}.cls-6{fill:#0f5a2f;}</style></defs><g id="Camada_2" data-name="Camada 2"><path class="cls-1" d="M236.08,179.27V153.84h4.63a19.77,19.77,0,0,1,4,.3,6.4,6.4,0,0,1,2.24,1,5.74,5.74,0,0,1,1.86,2.39,8.38,8.38,0,0,1,.66,3.35,6.62,6.62,0,0,1-2,5.32q-2.06,1.68-6.43,1.68h-2.68v11.42Zm2.3-13.44H240c2.8,0,4.69-.35,5.66-1.07a4.38,4.38,0,0,0,1.46-3.75,6.6,6.6,0,0,0-.34-2.07,5.53,5.53,0,0,0-1-1.69,3.83,3.83,0,0,0-1.84-1.08,18,18,0,0,0-3.95-.3h-1.58Z" transform="translate(-28.32 -89.27)"/><path class="cls-1" d="M289.22,179.27H286.4l-8.92-12.12h-1.39v12.12h-2.31V153.84h4.66c2.76,0,4.82.59,6.2,1.72a6.4,6.4,0,0,1,2.05,5.22,6.22,6.22,0,0,1-1.75,4.67,6.72,6.72,0,0,1-4.87,1.7Zm-13.13-23.4v9.39h2.32c2.16,0,3.66-.35,4.51-1a4.22,4.22,0,0,0,1.28-3.51,4.66,4.66,0,0,0-1.33-3.74c-.88-.73-2.37-1.09-4.46-1.09Z" transform="translate(-28.32 -89.27)"/><polygon class="cls-1" points="284.14 90 284.14 64.57 296.73 64.57 296.73 66.75 286.46 66.75 286.46 74.7 296.73 74.7 296.73 76.87 286.46 76.87 286.46 87.82 296.73 87.82 296.73 90 284.14 90"/><polygon class="cls-1" points="322.31 90 322.31 64.57 334.91 64.57 334.91 66.75 324.62 66.75 324.62 74.7 334.51 74.7 334.51 76.87 324.62 76.87 324.62 90 322.31 90"/><polygon class="cls-1" points="360.04 90 360.04 64.57 372.64 64.57 372.64 66.75 362.35 66.75 362.35 74.7 372.64 74.7 372.64 76.87 362.35 76.87 362.35 87.82 372.64 87.82 372.64 90 360.04 90"/><rect class="cls-1" x="398.22" y="64.57" width="2.32" height="25.42"/><polygon class="cls-1" points="431.31 90 431.31 66.75 424.29 66.75 424.29 64.57 440.62 64.57 440.62 66.75 433.62 66.75 433.62 90 431.31 90"/><path class="cls-1" d="M492.59,153.84h2.29v16.61c0,2.52.56,4.38,1.71,5.6s2.9,1.83,5.26,1.83a6.88,6.88,0,0,0,5.22-1.83c1.14-1.22,1.71-3.08,1.71-5.6V153.84h2.31v15.87c0,3.44-.75,6-2.29,7.7s-3.84,2.53-6.95,2.53-5.43-.84-7-2.53-2.3-4.26-2.3-7.7Z" transform="translate(-28.32 -89.27)"/><path class="cls-1" d="M552.67,179.27h-2.82l-8.91-12.12h-1.4v12.12h-2.31V153.84h4.68c2.74,0,4.8.59,6.18,1.72a6.43,6.43,0,0,1,2.06,5.22,6.23,6.23,0,0,1-1.76,4.67,6.67,6.67,0,0,1-4.85,1.7Zm-13.13-23.4v9.39h2.33c2.14,0,3.65-.35,4.51-1a4.28,4.28,0,0,0,1.27-3.51,4.66,4.66,0,0,0-1.33-3.74c-.87-.73-2.35-1.09-4.45-1.09Z" transform="translate(-28.32 -89.27)"/><path class="cls-1" d="M572.45,179.27l11.16-26.42,10.7,26.42h-2.52l-3.25-8.61H578.16l-3.37,8.61Zm6.49-10.59h8.86l-4.34-11.06Z" transform="translate(-28.32 -89.27)"/><path class="cls-1" d="M647.24,179.27V153.84h4a37.09,37.09,0,0,1,7.52.53,9.46,9.46,0,0,1,3.81,1.78,11,11,0,0,1,3.24,4.35,17.23,17.23,0,0,1,0,12.17,10,10,0,0,1-7,6.07,31.44,31.44,0,0,1-6.83.53h-4.73Zm2.31-2h3.24a24,24,0,0,0,5.59-.44,6.45,6.45,0,0,0,2.8-1.51,9.39,9.39,0,0,0,2.42-3.7,14.79,14.79,0,0,0,.82-5.08,14.54,14.54,0,0,0-.84-5.14,9,9,0,0,0-2.43-3.65,7,7,0,0,0-3-1.54,28.15,28.15,0,0,0-6.12-.45h-2.5Z" transform="translate(-28.32 -89.27)"/><polygon class="cls-1" points="663.62 90 663.62 64.57 676.2 64.57 676.2 66.75 665.93 66.75 665.93 74.7 676.2 74.7 676.2 76.87 665.93 76.87 665.93 87.82 676.2 87.82 676.2 90 663.62 90"/><path class="cls-1" d="M236.08,246.25l7.64-3.54a10.39,10.39,0,0,0,4,6,12.24,12.24,0,0,0,7.39,2.08,9.5,9.5,0,0,0,6.78-2.37,8.36,8.36,0,0,0,2.51-6.36q0-5.17-8.61-9.24c-.8-.41-1.41-.7-1.84-.89q-9.74-4.74-13-8.59a14,14,0,0,1-3.24-9.37,15.11,15.11,0,0,1,4.89-11.67q4.88-4.45,12.81-4.46a21.53,21.53,0,0,1,10.89,2.51,13.22,13.22,0,0,1,6.07,7.23l-7.48,3.85a12.54,12.54,0,0,0-3.87-4.06,9.25,9.25,0,0,0-4.85-1.29,8.92,8.92,0,0,0-6.13,2,6.83,6.83,0,0,0-2.27,5.38q0,5.31,10,9.89c.51.25.92.42,1.22.56q8.71,4,12,7.86a14.33,14.33,0,0,1,3.27,9.59q0,8.35-5.28,13.29t-14.23,4.93q-7.51,0-12.32-3.47a16,16,0,0,1-6.29-9.88M341.85,258l-28.47-61.2L284.88,258h10.05l6.83-15.16h23.32L331.76,258Zm-30.52-36.54c.38-.94.74-2,1.11-3.08s.7-2.32,1-3.61c.37,1.38.75,2.61,1.13,3.72s.73,2.11,1.09,3l6,13.42H305.3ZM364.44,258V217.09c.86,1.21,1.76,2.37,2.71,3.46s1.94,2.14,3,3.14l38.16,36.63V199.17h-8.84V240c-1.16-1.45-2.25-2.76-3.31-3.91s-2.07-2.23-3.09-3.25l-37.39-36V258Zm100.13-50.75v-8.11H423.81v8.11h15.64V258H449V207.28Zm73,21.44a30.29,30.29,0,0,0-2.35-11.84,30.63,30.63,0,0,0-6.86-10.07,31.11,31.11,0,0,0-10.18-6.68,33,33,0,0,0-24.15,0,31.13,31.13,0,0,0-10.21,6.68,30.45,30.45,0,0,0,0,43.75A31.33,31.33,0,0,0,494,257.24a31.82,31.82,0,0,0,12.14,2.36,31.33,31.33,0,0,0,12-2.34,32.08,32.08,0,0,0,10.24-6.7,30,30,0,0,0,9.21-21.84m-10,0a21.91,21.91,0,0,1-6.31,15.56,21.91,21.91,0,0,1-7,4.79,21,21,0,0,1-8.18,1.64,21.23,21.23,0,0,1-8.3-1.64,21.54,21.54,0,0,1-6.95-4.79,21.9,21.9,0,0,1-4.66-7.12,22.16,22.16,0,0,1-1.61-8.44,22.66,22.66,0,0,1,1.61-8.53,21.24,21.24,0,0,1,4.66-7.11,21.26,21.26,0,0,1,23.5-4.77,20.61,20.61,0,0,1,6.89,4.77,22.15,22.15,0,0,1,4.7,7.15,22.53,22.53,0,0,1,1.61,8.49M638.8,258l-28.47-61.2L581.83,258h10l6.83-15.16H622L628.7,258Zm-30.52-36.54c.38-.94.74-2,1.11-3.08s.7-2.32,1-3.61c.36,1.38.75,2.61,1.11,3.72s.76,2.11,1.1,3l6,13.42H602.24ZM661.38,258V217.09a42.29,42.29,0,0,0,2.72,3.46c.95,1.11,1.93,2.14,2.95,3.14l38.16,36.63V199.17h-8.85V240c-1.16-1.45-2.25-2.76-3.3-3.91s-2.08-2.23-3.09-3.25l-37.39-36V258Zm78.47,0h2.57c7,0,12.05-.42,15.36-1.26a24.51,24.51,0,0,0,8.77-4.25,24.86,24.86,0,0,0,7.74-10,34.38,34.38,0,0,0,2.63-13.89,34.87,34.87,0,0,0-2.63-13.94,24.59,24.59,0,0,0-7.74-10,24.18,24.18,0,0,0-9-4.24q-5.13-1.26-17.71-1.26H727V258Zm-3.34-50.3h6.93a48.09,48.09,0,0,1,10.86.89,14.74,14.74,0,0,1,6,3,17.43,17.43,0,0,1,5,7.08,29.86,29.86,0,0,1,0,19.75,17.6,17.6,0,0,1-5,7.09,14.3,14.3,0,0,1-5.75,3,42.3,42.3,0,0,1-10,.88h-8Zm69.68,24L825.77,258h10.81l-20.25-26.77q6.66-.82,10.08-4.82t3.41-11.07a18,18,0,0,0-1.49-7.39,13.86,13.86,0,0,0-4.22-5.52,14,14,0,0,0-5.51-2.52,41.28,41.28,0,0,0-9.12-.77H796.14V258h9V231.69Zm-.49-24.32h1.73c4.83,0,8.12.66,9.91,2S820,213,820,216.22c0,3-.82,5.09-2.5,6.26s-5,1.77-10.09,1.77H805.7ZM883.32,258v-8.56H860.05v-19h23.27v-8.4H860.05V207.28h23.27v-8.11H850.47V258Zm-2.6-70.95h-8.1L859,194.51h8.24l16.05-7.43Z" transform="translate(-28.32 -89.27)"/><path class="cls-2" d="M114.91,113.14c-2.16,0-4.77,0-7.87.24l1.75,4.32c2.36-.22,4.41-.32,6.18-.38Z" transform="translate(-28.32 -89.27)"/><path class="cls-2" d="M106.26,113.43c-1,.07-2.09.16-3.21.28.41,1.4.87,2.93,1.32,4.46,1.28-.16,2.49-.29,3.64-.4Z" transform="translate(-28.32 -89.27)"/><path class="cls-2" d="M110.42,121.75l1.63-.11-.15-3.43-2.82.21Z" transform="translate(-28.32 -89.27)"/><path class="cls-2" d="M109.63,121.8l-1.33-3.31c-1.17.11-2.41.25-3.71.41.33,1.13.66,2.24,1,3.28C107,122,108.36,121.9,109.63,121.8Z" transform="translate(-28.32 -89.27)"/><path class="cls-2" d="M102.08,113.07c-.6-2-1.08-3.67-1.3-4.43l-.17-.61-4.91.81.18,5.09C98.1,113.56,100.16,113.29,102.08,113.07Z" transform="translate(-28.32 -89.27)"/><path class="cls-2" d="M99.55,117.29c1.63-.27,3.36,1.17,4.94,3.91-.72-2.44-1.52-5.11-2.2-7.4-2,.22-4.09.5-6.38.88l.26,7.65C96.79,119.36,98,117.55,99.55,117.29Z" transform="translate(-28.32 -89.27)"/><polygon class="cls-2" points="66.61 18.94 66.49 15.53 63.2 15.84 63.4 19.46 66.61 18.94"/><path class="cls-2" d="M95.49,124.43c-1.29.24-2.56.53-3.83.81v5c1.37-.3,2.71-.57,4-.82Z" transform="translate(-28.32 -89.27)"/><path class="cls-2" d="M100.42,107.31a24.2,24.2,0,0,1-.56-3l-4.3.41.12,3.36Z" transform="translate(-28.32 -89.27)"/><path class="cls-2" d="M111.94,127.53l-2-5c-1.3.1-2.69.23-4.15.38.7,2.38,1.26,4.27,1.46,4.94C108.86,127.71,110.43,127.6,111.94,127.53Z" transform="translate(-28.32 -89.27)"/><path class="cls-2" d="M134.33,113.71c-1.13-.12-2.19-.2-3.21-.28l-1.75,4.34c1.14.11,2.35.24,3.63.4C133.46,116.64,133.91,115.11,134.33,113.71Z" transform="translate(-28.32 -89.27)"/><path class="cls-2" d="M91.66,124.47c1.26-.27,2.52-.56,3.81-.8l-.12-3.28c-1.2.23-2.45.51-3.69.78Z" transform="translate(-28.32 -89.27)"/><path class="cls-2" d="M131.6,122.91c-1.47-.15-2.85-.28-4.15-.38l-2,5c1.52.07,3.09.18,4.71.32C130.34,127.18,130.9,125.29,131.6,122.91Z" transform="translate(-28.32 -89.27)"/><path class="cls-2" d="M132.79,118.9c-1.31-.16-2.55-.3-3.71-.41l-1.34,3.31c1.28.1,2.64.23,4.08.38C132.13,121.14,132.45,120,132.79,118.9Z" transform="translate(-28.32 -89.27)"/><path class="cls-2" d="M134.54,113c.62-2.08,1.11-3.78,1.34-4.54l.14-.53-2.51-.41-2.1,5.2C132.4,112.77,133.45,112.87,134.54,113Z" transform="translate(-28.32 -89.27)"/><path class="cls-2" d="M136.77,104.25l-2.66-.25-.19,2.81,2.29.38A21.83,21.83,0,0,0,136.77,104.25Z" transform="translate(-28.32 -89.27)"/><path class="cls-2" d="M127,121.75l1.35-3.33-2.83-.21-.15,3.43Z" transform="translate(-28.32 -89.27)"/><path class="cls-2" d="M121.66,117.29l.06-4.15h-1.27c-1.27,0-2.25,0-3.53,0h-1.26l0,4.15c1.13,0,2.13,0,3,0S120.54,117.26,121.66,117.29Z" transform="translate(-28.32 -89.27)"/><path class="cls-2" d="M130.33,113.38c-3.09-.2-5.71-.24-7.86-.24l-.06,4.18c1.76.06,3.81.16,6.18.38Z" transform="translate(-28.32 -89.27)"/><path class="cls-2" d="M126.66,122.47c-1.59-.11-3-.18-4.32-.23l-.07,5.18,2.36.08Z" transform="translate(-28.32 -89.27)"/><path class="cls-2" d="M115.11,127.42l-.07-5.18c-1.29.05-2.74.12-4.33.23l2,5Z" transform="translate(-28.32 -89.27)"/><path class="cls-2" d="M68.88,117.37l-1.26-3.09-4.19,2.06,5,4.79a176.82,176.82,0,0,1,22.49-6.28v-5.79l-2.26.48v2.35L85,113.45l-.3-3.25-4.76,1.1.21,3.3-3.7.83-.29-3.38-3.8.76.5,3.34Z" transform="translate(-28.32 -89.27)"/><polygon class="cls-2" points="59.81 3.67 56.66 4.19 56.66 5.42 61.45 10.1 75.48 8.54 78.97 2.72 78.76 0.98 75.8 1.41 75.99 2.67 73.07 3.17 72.88 1.85 70.04 2.25 70.22 3.65 66.3 4.22 66.1 2.79 63.63 3.12 63.74 4.66 60.01 5.35 59.81 3.67"/><path class="cls-2" d="M137.82,117.29c1.61.26,2.77,2.07,3.38,5l.27-7.65c-2.3-.38-4.42-.66-6.39-.88l-2.19,7.4C134.47,118.46,136.2,117,137.82,117.29Z" transform="translate(-28.32 -89.27)"/><path class="cls-2" d="M109.29,106.84l-4.76.31,2.22,5.5c4.27-.29,7.64-.27,10.18-.24,1.27,0,2.25,0,3.51,0,2.54,0,5.91,0,10.18.24l2.23-5.5-4.76-.31-.54,3.13-3-.22v-3.1l-4.25-.14v3.26h-3.12v-3.26l-4.26.14v3.1l-3,.22Z" transform="translate(-28.32 -89.27)"/><polygon class="cls-2" points="101.96 0.98 101.75 2.72 105.25 8.54 119.28 10.1 124.06 5.42 124.06 4.18 120.92 3.67 120.72 5.35 116.99 4.66 117.1 3.12 114.63 2.79 114.43 4.22 110.5 3.65 110.69 2.25 107.84 1.85 107.66 3.17 104.75 2.67 104.94 1.41 101.96 0.98"/><path class="cls-2" d="M152.7,110.2l-.3,3.25-3.67-1.56v-2.35l-2.27-.48v5.79A176.36,176.36,0,0,1,169,121.13l5-4.79-4.19-2.06-1.27,3.09-4-1.22.5-3.34-3.8-.76-.29,3.38-3.7-.83.21-3.3Z" transform="translate(-28.32 -89.27)"/><path class="cls-2" d="M59.89,104.8,61.17,102v-1.74l-3.75.35.45,2-3.2,1.66L52.93,102l-1.89.92.64,2.78-3.07,1.8L47,105.08l-2.7,1.63,2.55,3.59A60,60,0,0,1,59.89,104.8Z" transform="translate(-28.32 -89.27)"/><path class="cls-2" d="M180.36,113.56a24.53,24.53,0,0,0-3.26-1l-2.14,4c.55.23,1.42.62,2.46,1.12Z" transform="translate(-28.32 -89.27)"/><path class="cls-2" d="M118.63,132.22a122.87,122.87,0,0,0-48.32,10.12L71,144a135.16,135.16,0,0,1,47.6-8.48h.11a135.1,135.1,0,0,1,47.6,8.48l.72-1.7a122.93,122.93,0,0,0-48.32-10.12Z" transform="translate(-28.32 -89.27)"/><path class="cls-2" d="M70.28,148.47a7.48,7.48,0,0,0,2.44-.52l.86-.31a128.47,128.47,0,0,1,90.22,0l.86.31a7.43,7.43,0,0,0,2.43.52c.53,0,1.18-.11,1.32-.67.19-.77-.57-2.11-2-2.87l-.34-.19h0a134.47,134.47,0,0,0-47.32-8.42h-.11a134.39,134.39,0,0,0-47.31,8.42h0l-.35.19c-1.44.76-2.21,2.1-2,2.87C69.1,148.36,69.76,148.47,70.28,148.47Z" transform="translate(-28.32 -89.27)"/><path class="cls-2" d="M170.6,138.75l-.2-.13c-24.19-9.21-39.13-10.49-51.66-10.49h-.11c-12.52,0-27.46,1.28-51.64,10.48l-.23.14c-.12.07-1.18.79-.34,2.37a1.79,1.79,0,0,0,1.73,1,4.32,4.32,0,0,0,1.46-.29l.39-.17,0,0a123.75,123.75,0,0,1,48.61-10.17h.11a123.87,123.87,0,0,1,48.62,10.17v0l.4.17a4.32,4.32,0,0,0,1.46.29,1.78,1.78,0,0,0,1.72-1C171.8,139.54,170.73,138.82,170.6,138.75Z" transform="translate(-28.32 -89.27)"/><path class="cls-2" d="M100.61,104.25a23,23,0,0,0,.55,2.94l2.3-.38-.19-2.81Z" transform="translate(-28.32 -89.27)"/><polygon class="cls-2" points="75.75 13.64 75.59 11.75 62.05 13.09 62.33 14.95 62.93 15.11 75.1 13.96 75.75 13.64"/><path class="cls-2" d="M91.66,109.5v5.2c1.2-.24,2.35-.45,3.48-.64L95,109Z" transform="translate(-28.32 -89.27)"/><path class="cls-2" d="M102.83,113c1.1-.12,2.14-.21,3.13-.29l-2.1-5.2-2.5.41c0,.18.08.34.14.53Z" transform="translate(-28.32 -89.27)"/><path class="cls-2" d="M91.66,120.41c1.23-.27,2.48-.55,3.67-.78l-.17-4.82c-1.13.19-2.29.41-3.5.65Z" transform="translate(-28.32 -89.27)"/><path class="cls-2" d="M184.5,115.59a27.43,27.43,0,0,0-3.43-1.75l-3,4.13a33,33,0,0,1,3.62,2.08Z" transform="translate(-28.32 -89.27)"/><path class="cls-2" d="M169.74,121.41c2.89,1,5.88,2.12,9,3.38l2.55-4.1a45,45,0,0,0-7-3.65Z" transform="translate(-28.32 -89.27)"/><path class="cls-2" d="M124.73,118.17c-2.47-.14-4.49-.16-6-.16s-3.58,0-6,.16l.15,3.42c2.39-.13,4.39-.16,5.89-.16s3.5,0,5.88.16Z" transform="translate(-28.32 -89.27)"/><path class="cls-2" d="M115.79,122.22l.07,5.19,2.77,0h.11l2.77,0,.08-5.19c-1.1,0-2.08,0-2.9,0S116.88,122.19,115.79,122.22Z" transform="translate(-28.32 -89.27)"/><polygon class="cls-2" points="75.53 11.01 75.38 9.3 61.72 10.82 61.95 12.34 75.53 11.01"/><path class="cls-2" d="M90.91,115.61c-1.7.35-3.47.75-5.34,1.2l1,4.77c1.46-.36,2.9-.7,4.32-1Z" transform="translate(-28.32 -89.27)"/><path class="cls-2" d="M75.66,129.11l-3-2.86c-1.67.53-3.34,1.06-5.05,1.63a20.06,20.06,0,0,1,3.56,3C72.65,130.24,74.15,129.67,75.66,129.11Z" transform="translate(-28.32 -89.27)"/><path class="cls-2" d="M77,134.31l-3.48-3.54c-.59.23-1.18.44-1.75.68a25.56,25.56,0,0,1,2.72,3.68C75.3,134.85,76.13,134.57,77,134.31Z" transform="translate(-28.32 -89.27)"/><path class="cls-2" d="M59,125.43l.19.3a12.4,12.4,0,0,1,7.61,1.63c.77-.26,1.51-.48,2.27-.74L65.33,123C63.28,123.78,61.19,124.57,59,125.43Z" transform="translate(-28.32 -89.27)"/><path class="cls-2" d="M82.94,132.47l-2.15-4.32c-1.27.4-2.54.79-3.77,1.23l3.86,3.7Z" transform="translate(-28.32 -89.27)"/><path class="cls-2" d="M80.06,133.33l-3.81-3.65c-.68.25-1.34.53-2,.79l3.51,3.58C78.53,133.8,79.31,133.55,80.06,133.33Z" transform="translate(-28.32 -89.27)"/><path class="cls-2" d="M76.43,128.8c2.34-.84,4.74-1.62,7.2-2.32l-1.07-3.12c-2.94.79-6,1.67-9.07,2.63Z" transform="translate(-28.32 -89.27)"/><path class="cls-2" d="M87.86,131.16l-1-4.77c-1.81.47-3.6,1-5.34,1.52l2.17,4.36C85.11,131.86,86.5,131.5,87.86,131.16Z" transform="translate(-28.32 -89.27)"/><path class="cls-2" d="M66.12,122.75l3.78,3.61,2.17-.7L68.24,122Z" transform="translate(-28.32 -89.27)"/><path class="cls-2" d="M84.84,117c-2.43.6-5,1.33-7.73,2.13l2.2,4.39c2.22-.63,4.41-1.21,6.55-1.74Z" transform="translate(-28.32 -89.27)"/><path class="cls-2" d="M69,121.71l3.85,3.69c1.93-.6,3.82-1.15,5.69-1.69l-2.19-4.38C74,120,71.59,120.83,69,121.71Z" transform="translate(-28.32 -89.27)"/><path class="cls-2" d="M189.94,110.85a60.32,60.32,0,0,0-12.09-5.17l.37.83-.05,3.53a31.26,31.26,0,0,1,8.35,3.65Z" transform="translate(-28.32 -89.27)"/><path class="cls-2" d="M178,110.78l-.57,1.06A27.64,27.64,0,0,1,185,115l1-.79A30.66,30.66,0,0,0,178,110.78Z" transform="translate(-28.32 -89.27)"/><path class="cls-2" d="M60,111.83l-.56-1.07a30.35,30.35,0,0,0-7.94,3.45l.94.79A27.72,27.72,0,0,1,60,111.83Z" transform="translate(-28.32 -89.27)"/><path class="cls-2" d="M193,106.71l-2.7-1.63-1.57,2.37-3.06-1.81.64-2.77-1.89-.92-1.75,2.29-3.19-1.66.45-2-3.75-.35V102l1.24,2.82a60.51,60.51,0,0,1,13,5.5Z" transform="translate(-28.32 -89.27)"/><path class="cls-2" d="M59.16,110.05l0-3.71.29-.65a59.9,59.9,0,0,0-12,5.16l3.4,2.85A31.24,31.24,0,0,1,59.16,110.05Z" transform="translate(-28.32 -89.27)"/><path class="cls-2" d="M178.19,125.73l.18-.29c-2.18-.87-4.27-1.66-6.32-2.41l-3.76,3.59c.77.26,1.51.48,2.29.74A12.37,12.37,0,0,1,178.19,125.73Z" transform="translate(-28.32 -89.27)"/><path class="cls-2" d="M57,113.56,60,117.63c1-.5,1.92-.89,2.47-1.12l-2.11-4A24.51,24.51,0,0,0,57,113.56Z" transform="translate(-28.32 -89.27)"/><path class="cls-2" d="M90.91,130.43v-5c-1.12.26-2.23.53-3.34.81l1,4.78Z" transform="translate(-28.32 -89.27)"/><path class="cls-2" d="M56.06,120.68l2.55,4.11c3.15-1.26,6.14-2.36,9-3.38L63.08,117A46.16,46.16,0,0,0,56.06,120.68Z" transform="translate(-28.32 -89.27)"/><path class="cls-2" d="M90.91,121.33c-2.47.55-5,1.16-7.62,1.85l1.07,3.1c2.14-.6,4.33-1.15,6.55-1.65Z" transform="translate(-28.32 -89.27)"/><path class="cls-2" d="M52.89,115.57,55.67,120a33.64,33.64,0,0,1,3.6-2.07l-3-4.13A28.33,28.33,0,0,0,52.89,115.57Z" transform="translate(-28.32 -89.27)"/><path class="cls-2" d="M146.46,124.63q3.34.75,6.56,1.65l1.07-3.1c-2.61-.69-5.15-1.3-7.63-1.85Z" transform="translate(-28.32 -89.27)"/><polygon class="cls-2" points="118.4 14.95 118.67 13.09 105.14 11.75 104.97 13.63 105.64 13.96 117.79 15.11 118.4 14.95"/><polygon class="cls-2" points="114.23 15.53 114.11 18.94 117.32 19.46 117.53 15.84 114.23 15.53"/><path class="cls-2" d="M169.75,127.88c-1.71-.57-3.39-1.1-5.06-1.63l-3,2.86c1.51.56,3,1.13,4.47,1.76A19.69,19.69,0,0,1,169.75,127.88Z" transform="translate(-28.32 -89.27)"/><path class="cls-2" d="M171.26,122.75l-2.12-.76-3.83,3.67,2.17.7Z" transform="translate(-28.32 -89.27)"/><polygon class="cls-2" points="105.2 11.01 118.78 12.34 119 10.82 105.35 9.3 105.2 11.01"/><path class="cls-2" d="M158.81,123.71c1.87.54,3.75,1.09,5.68,1.69l3.86-3.69c-2.56-.88-5-1.67-7.35-2.38Z" transform="translate(-28.32 -89.27)"/><path class="cls-2" d="M145.71,115.46c-1.21-.24-2.37-.45-3.5-.65l-.16,4.82c1.19.23,2.44.51,3.66.78Z" transform="translate(-28.32 -89.27)"/><path class="cls-2" d="M145.71,125.24c-1.27-.28-2.53-.57-3.83-.81l-.17,5c1.3.25,2.63.52,4,.82Z" transform="translate(-28.32 -89.27)"/><path class="cls-2" d="M141.81,104.73l-4.3-.41a22.37,22.37,0,0,1-.56,3l4.74.78Z" transform="translate(-28.32 -89.27)"/><path class="cls-2" d="M145.71,121.17c-1.24-.27-2.49-.55-3.69-.78l-.12,3.28c1.29.24,2.55.53,3.81.8Z" transform="translate(-28.32 -89.27)"/><path class="cls-2" d="M145.71,109.5l-3.3-.53-.17,5.09c1.12.19,2.28.4,3.47.64Z" transform="translate(-28.32 -89.27)"/><path class="cls-2" d="M160.35,129.38c-1.22-.44-2.5-.83-3.76-1.23l-2.16,4.32,2.06.61Z" transform="translate(-28.32 -89.27)"/><path class="cls-2" d="M163.14,130.47c-.68-.26-1.34-.54-2-.79l-3.8,3.65,2.3.72Z" transform="translate(-28.32 -89.27)"/><path class="cls-2" d="M155.87,127.91c-1.75-.55-3.53-1-5.34-1.52l-1,4.77c1.36.34,2.75.7,4.18,1.11Z" transform="translate(-28.32 -89.27)"/><path class="cls-2" d="M165.65,131.45c-.57-.24-1.17-.45-1.75-.68l-3.48,3.54c.83.26,1.66.54,2.51.82A25.56,25.56,0,0,1,165.65,131.45Z" transform="translate(-28.32 -89.27)"/><path class="cls-2" d="M151.52,121.76q3.21.8,6.55,1.74l2.19-4.39c-2.7-.8-5.29-1.52-7.73-2.13Z" transform="translate(-28.32 -89.27)"/><path class="cls-2" d="M141.67,108.84l-4.91-.81c0,.21-.1.4-.16.61-.22.76-.71,2.4-1.31,4.43,1.92.22,4,.49,6.2.86Z" transform="translate(-28.32 -89.27)"/><path class="cls-2" d="M163.88,126c-3.09-1-6.12-1.84-9.07-2.63l-1.07,3.12c2.46.71,4.87,1.48,7.21,2.32Z" transform="translate(-28.32 -89.27)"/><path class="cls-2" d="M149.8,126.2c-1.1-.28-2.22-.55-3.34-.81v5c.76.17,1.54.36,2.32.55Z" transform="translate(-28.32 -89.27)"/><path class="cls-2" d="M146.46,120.57c1.42.31,2.86.65,4.33,1l1-4.77c-1.87-.45-3.64-.85-5.35-1.2Z" transform="translate(-28.32 -89.27)"/><path class="cls-1" d="M190.08,103.93l-1.58,2.37-1.82-1.07.65-2.83-3.14-1.52-1.73,2.27-2-1,.52-2.31-5.66-.52v2.76l2,4.54v3.61l-2.92,5.43-5.14-2.54L168,116.32l-2.51-.78.51-3.41L160.47,111l-.29,3.36-2-.45.21-3.3-6.43-1.49-.28,3.07-2.07-.88v-2.49l-3-.64.17-3.09.78-.21.72-4.93,5-4.92V92.73L148.51,92l-.21,1.66-2.08-.38.11-1.59-4.11-.54-.2,1.42-2.23-.33.19-1.4-4.54-.63-.18,1.29L134,91.24l.19-1.28-4.69-.69-.35,2.91,3.65,6.08-.45,5.15.87.43-.17,2.47-5.71-.38-.54,3.12-1.48-.1v-3.12l-6-.21v3.3H118v-3.3l-6,.21V109l-1.47.1-.54-3.12-5.72.38-.17-2.47.87-.43-.44-5.15,3.64-6.08-.35-2.91-4.69.69.2,1.28-1.22.21-.19-1.29-4.53.63.19,1.4-2.24.33-.2-1.42-4.1.54.11,1.59-2.09.38L88.87,92l-4.74.78v2.32l5,4.92.72,4.93.78.21.18,3.09-3,.64v2.48l-2.07.89-.27-3.07L79,110.63l.22,3.3-2,.45L76.91,111l-5.53,1.11.5,3.41-2.5.78-1.32-3.22-5.14,2.54L60,110.21V106.6l2-4.36,0-2.94-5.65.52.52,2.3-2,1-1.73-2.27-3.13,1.52.65,2.83-1.82,1.07-1.58-2.37-4.19,2.53,3.28,4.61,5.62,4.7,14,22.5a2.55,2.55,0,0,0-.31,3.25,2.64,2.64,0,0,0,2.48,1.42,5,5,0,0,0,1.39-.22l.7,1.65c-1.48.93-2.4,2.47-2.1,3.64.09.4.5,1.32,2.14,1.32a8.37,8.37,0,0,0,2.73-.57l.86-.31a127.54,127.54,0,0,1,89.64,0l.86.32a8.37,8.37,0,0,0,2.72.57c1.64,0,2-.92,2.15-1.32.29-1.17-.62-2.71-2.1-3.64l.7-1.65a4.86,4.86,0,0,0,1.39.22,2.65,2.65,0,0,0,2.48-1.42,2.55,2.55,0,0,0-.32-3.25l14-22.5,5.55-4.62,3.36-4.69Zm-12.23,1.75a60.32,60.32,0,0,1,12.09,5.17l-3.42,2.84a31.26,31.26,0,0,0-8.35-3.65l.05-3.53ZM60,117.63,57,113.56a24.51,24.51,0,0,1,3.29-1l2.11,4c-.55.23-1.42.62-2.47,1.12m-3.65-3.79,3,4.13a33.64,33.64,0,0,0-3.6,2.07l-2.78-4.47a28.33,28.33,0,0,1,3.41-1.73m6.78,3.2,4.56,4.37c-2.89,1-5.88,2.12-9,3.38l-2.55-4.11a46.16,46.16,0,0,1,7-3.64m40.19-13,.19,2.81-2.3.38a23,23,0,0,1-.55-2.94Zm33.5.25a21.83,21.83,0,0,1-.56,2.94l-2.29-.38.19-2.81Zm29.42,26.62c-1.45-.63-3-1.2-4.47-1.76l3-2.86c1.67.53,3.35,1.06,5.06,1.63a19.69,19.69,0,0,0-3.56,3m-12.45-4.39,1.07-3.12c2.95.79,6,1.67,9.07,2.63L161,128.8c-2.34-.84-4.75-1.61-7.21-2.32m-7.28-1.85v-3.3c2.48.55,5,1.16,7.63,1.85l-1.07,3.1q-3.21-.9-6.56-1.65m-27.77-3.2c-1.5,0-3.5,0-5.89.16l-.15-3.42c2.46-.14,4.48-.16,6-.16s3.57,0,6,.16l-.16,3.42c-2.38-.13-4.38-.16-5.88-.16m-34.33,4.85-1.07-3.1c2.61-.69,5.15-1.3,7.62-1.85v3.3c-2.22.5-4.41,1.05-6.55,1.65m-7.93,2.52L73.49,126c3.1-1,6.13-1.84,9.07-2.63l1.07,3.12c-2.46.7-4.86,1.48-7.2,2.32m-5.24,2.06a20.06,20.06,0,0,0-3.56-3c1.71-.57,3.38-1.1,5.05-1.63l3,2.86c-1.51.56-3,1.13-4.47,1.75m20.47-9.69c1.24-.27,2.49-.55,3.69-.78l.12,3.28c-1.29.24-2.55.53-3.81.8Zm9.12-12.53c.22.76.7,2.4,1.3,4.43-1.92.22-4,.49-6.2.86l-.18-5.09,4.91-.81.17.61m1.51,5.16c.68,2.29,1.48,5,2.2,7.4-1.58-2.74-3.31-4.18-4.94-3.91s-2.76,2.07-3.38,5l-.26-7.65c2.29-.38,4.41-.66,6.38-.88m2.3,5.1c1.3-.16,2.54-.3,3.71-.41l1.33,3.31c-1.27.1-2.64.23-4.07.38-.31-1-.64-2.15-1-3.28m4.49-.48,2.82-.21.15,3.43-1.63.11Zm16.39-.21,2.83.21L127,121.75l-1.63-.11Zm3.61.28c1.16.11,2.4.25,3.71.41-.34,1.13-.66,2.24-1,3.28-1.44-.15-2.8-.28-4.08-.38ZM136.76,108l4.91.81-.18,5.09c-2.22-.37-4.28-.64-6.2-.86.6-2,1.09-3.67,1.31-4.43.06-.21.11-.4.16-.61m4.71,6.65-.27,7.65c-.61-3-1.77-4.78-3.38-5s-3.35,1.17-4.93,3.91l2.19-7.4c2,.22,4.09.5,6.39.88m.55,5.71c1.2.23,2.45.51,3.69.78v3.3c-1.26-.27-2.52-.56-3.81-.8Zm23.29,5.27,3.83-3.67,2.12.76-3.78,3.61-2.17-.7m-.82-.26c-1.93-.6-3.81-1.15-5.68-1.69l2.19-4.38c2.35.71,4.79,1.5,7.35,2.38Zm-6.42-1.9q-3.34-.94-6.55-1.74l1-4.78c2.44.61,5,1.33,7.73,2.13Zm-7.28-1.92c-1.47-.36-2.91-.7-4.33-1v-5c1.71.35,3.48.75,5.35,1.2Zm-5.08-1.17c-1.22-.27-2.47-.55-3.66-.78l.16-4.82c1.13.2,2.29.41,3.5.65Zm-3.47-6.35.17-5.09,3.3.53v5.2c-1.19-.24-2.35-.45-3.47-.64m3.4-5.33-3.2-.52.12-3.41,3.29.31Zm-3.95-.64-4.74-.78a22.37,22.37,0,0,0,.56-3l4.3.41Zm-8.18-.59,2.51.41-.14.53c-.23.76-.72,2.46-1.34,4.54-1.09-.11-2.14-.21-3.13-.28Zm.82,6.21c-.42,1.4-.87,2.93-1.33,4.46-1.28-.16-2.49-.29-3.63-.4l1.75-4.34c1,.08,2.08.16,3.21.28m-5.74,4c-2.37-.22-4.42-.32-6.18-.38l.06-4.18c2.15,0,4.77,0,7.86.24Zm-6.93-.41c-1.12,0-2.12,0-3,0s-1.85,0-3,0l0-4.15h1.26c1.28,0,2.26,0,3.53,0h1.27Zm-6.75-4.15.06,4.18c-1.77.06-3.82.16-6.18.38L107,113.38c3.1-.2,5.71-.24,7.87-.24m-6.9,4.63c-1.15.11-2.36.24-3.64.4-.45-1.53-.91-3.06-1.32-4.46,1.12-.12,2.19-.21,3.21-.28ZM102.83,113l-1.33-4.55c-.06-.19-.1-.35-.14-.53l2.5-.41,2.1,5.2c-1,.08-2,.17-3.13.29m-3-8.67a24.2,24.2,0,0,0,.56,3l-4.74.78-.12-3.36Zm-5,.48.11,3.41-3.2.52-.21-3.62Zm-3.16,4.7L95,109l.18,5.09c-1.13.19-2.28.4-3.48.64Zm3.5,5.31.17,4.82c-1.19.23-2.44.51-3.67.78v-5c1.21-.24,2.37-.46,3.5-.65m-4.25,5.76c-1.42.31-2.86.65-4.32,1l-1-4.77c1.87-.45,3.64-.85,5.34-1.2ZM84.84,117l1,4.78c-2.14.53-4.33,1.11-6.55,1.74l-2.2-4.39c2.71-.8,5.3-1.53,7.73-2.13m-8.46,2.35,2.19,4.38c-1.87.54-3.76,1.09-5.69,1.69L69,121.71c2.56-.88,5-1.67,7.35-2.38m-4.31,6.33-2.17.7-3.78-3.61,2.12-.76ZM65.33,123l3.75,3.59c-.76.26-1.5.48-2.27.74a12.4,12.4,0,0,0-7.61-1.63l-.19-.3c2.18-.86,4.27-1.65,6.32-2.4m9.12,12.1a25.56,25.56,0,0,0-2.72-3.68c.57-.24,1.16-.45,1.75-.68L77,134.31c-.83.26-1.66.54-2.51.82m3.3-1.08-3.51-3.58c.67-.26,1.33-.54,2-.79l3.81,3.65c-.75.22-1.53.47-2.31.72m3.13-1L77,129.38c1.23-.44,2.5-.83,3.77-1.23l2.15,4.32-2.06.61m2.8-.81-2.17-4.36c1.74-.55,3.53-1,5.34-1.52l1,4.77c-1.36.34-2.75.7-4.18,1.11M88.59,131l-1-4.78c1.11-.28,2.22-.55,3.34-.81v5l-2.32.55m3.07-5.74c1.27-.28,2.54-.57,3.83-.81l.18,5c-1.3.25-2.64.52-4,.82Zm15.58,2.61c-.2-.67-.76-2.56-1.46-4.94,1.46-.15,2.85-.28,4.15-.38l2,5c-1.51.07-3.08.18-4.7.32m5.5-.35-2-5c1.59-.11,3-.18,4.33-.23l.07,5.18-2.37.08m3.12-.09-.07-5.19c1.09,0,2.08,0,2.9,0s1.8,0,2.9,0l-.08,5.19-2.77,0h-.11l-2.77,0m6.48-5.17c1.29.05,2.73.12,4.32.23l-2,5-2.36-.08Zm5.11.29c1.3.1,2.68.23,4.15.38-.7,2.38-1.26,4.27-1.46,4.94-1.62-.14-3.19-.25-4.71-.32Zm14.43,1.9c1.3.24,2.56.53,3.83.81v5c-1.37-.3-2.7-.57-4-.82Zm4.58,1c1.12.26,2.24.53,3.34.81l-1,4.78c-.78-.19-1.56-.38-2.32-.55Zm4.07,1c1.81.47,3.59,1,5.34,1.52l-2.18,4.36c-1.43-.41-2.82-.77-4.18-1.11Zm6.06,1.76c1.26.4,2.54.79,3.76,1.23l-3.86,3.7-2.06-.61Zm4.53,1.53c.68.25,1.34.53,2,.79l-3.52,3.58-2.3-.72Zm2.78,1.09c.58.23,1.18.44,1.75.68a25.56,25.56,0,0,0-2.72,3.68c-.85-.28-1.68-.56-2.51-.82Zm6.68-3.41c-.78-.26-1.52-.48-2.29-.74l3.76-3.59c2,.75,4.14,1.54,6.32,2.41l-.18.29a12.37,12.37,0,0,0-7.61,1.63m-.84-6,4.55-4.37a45,45,0,0,1,7,3.65l-2.55,4.1c-3.16-1.26-6.15-2.36-9-3.38M178.1,118l3-4.13a27.43,27.43,0,0,1,3.43,1.75l-2.78,4.46A33,33,0,0,0,178.1,118m-.68-.34c-1-.5-1.91-.89-2.46-1.12l2.14-4a24.53,24.53,0,0,1,3.26,1Zm-28.69-8.09v2.35l3.67,1.56.3-3.25,4.76,1.1-.21,3.3,3.7.83.29-3.38,3.8.76-.5,3.34,4,1.22,1.27-3.09,4.19,2.06-5,4.79a176.36,176.36,0,0,0-22.49-6.28v-5.79Zm-2.61-5.16L134,103.23l-.66-.33.16-1.88L147,102.36l-.27,1.86Zm-12.45-5.81,13.66,1.52-.22,1.52-13.58-1.33ZM130.08,92l.21-1.74,3,.43-.19,1.26,2.91.5.19-1.31,2.85.39-.2,1.4,3.93.57.2-1.43,2.47.33-.11,1.54,3.73.69.21-1.68,3.14.51v1.24l-4.79,4.68-14-1.56Zm-20.25,18,3-.22v-3.1l4.26-.14v3.26h3.12v-3.26l4.25.14v3.1l3,.22.54-3.13,4.76.31-2.23,5.5c-4.27-.29-7.64-.27-10.18-.24-1.26,0-2.24,0-3.51,0-2.54,0-5.91,0-10.18.24l-2.22-5.5,4.76-.31Zm-6.13-11.4.15,1.71-13.58,1.33-.22-1.52ZM85,94.69V93.46l3.14-.52.2,1.68,3.73-.69L92,92.39l2.46-.33.21,1.43,3.92-.57-.19-1.4,2.85-.39.18,1.31,2.92-.5-.19-1.26,3-.43L107.3,92l-3.5,5.82-14,1.56Zm5.66,9.53-.27-1.86L103.92,101l.16,1.89-.66.32-12.16,1.15ZM68.88,117.37l4-1.22-.5-3.34,3.8-.76.29,3.38,3.7-.83-.21-3.3,4.76-1.1.3,3.25,3.67-1.56v-2.35l2.26-.48v5.79a176.82,176.82,0,0,0-22.49,6.28l-5-4.79,4.19-2.06Zm-9.69-11,0,3.71a31.24,31.24,0,0,0-8.32,3.65l-3.4-2.85a59.9,59.9,0,0,1,12-5.16Zm-14.85.37,2.7-1.63,1.57,2.37,3.07-1.8L51,102.87l1.89-.92,1.74,2.29,3.2-1.66-.45-2,3.75-.35V102l-1.28,2.83a60,60,0,0,0-13,5.5Zm7.11,7.5a30.35,30.35,0,0,1,7.94-3.45l.56,1.07A27.72,27.72,0,0,0,52.39,115ZM166.34,144a135.1,135.1,0,0,0-47.6-8.48h-.11A135.16,135.16,0,0,0,71,144l-.72-1.7a122.87,122.87,0,0,1,48.32-10.12h.11a122.93,122.93,0,0,1,48.32,10.12Zm2.07,3.76c-.14.56-.79.67-1.32.67a7.43,7.43,0,0,1-2.43-.52l-.86-.31a128.47,128.47,0,0,0-90.22,0l-.86.31a7.48,7.48,0,0,1-2.44.52c-.52,0-1.18-.11-1.31-.67-.2-.77.57-2.11,2-2.87l.35-.19h0a134.39,134.39,0,0,1,47.31-8.42h.11a134.47,134.47,0,0,1,47.32,8.42h0l.34.19c1.45.76,2.21,2.1,2,2.87m2.54-6.68a1.78,1.78,0,0,1-1.72,1,4.32,4.32,0,0,1-1.46-.29l-.4-.17v0a123.87,123.87,0,0,0-48.62-10.17h-.11A123.75,123.75,0,0,0,70,141.65l0,0-.39.17a4.32,4.32,0,0,1-1.46.29,1.79,1.79,0,0,1-1.73-1c-.84-1.58.22-2.3.34-2.37l.23-.14c24.18-9.2,39.12-10.48,51.64-10.48h.11c12.53,0,27.47,1.28,51.66,10.49l.2.13c.13.07,1.2.79.35,2.37M185,115a27.64,27.64,0,0,0-7.5-3.15l.57-1.06a30.66,30.66,0,0,1,7.89,3.42Zm5.52-4.7a60.51,60.51,0,0,0-13-5.5L176.21,102v-1.74l3.75.35-.45,2,3.19,1.66,1.75-2.29,1.89.92-.64,2.77,3.06,1.81,1.57-2.37,2.7,1.63Z" transform="translate(-28.32 -89.27)"/><path class="cls-3" d="M168.28,257.9,132.8,215.63l.2-.25,35.28-42V152.72h-10.9l-38.69,46.1L80,152.72H69.09v20.63l35.49,42.28-.21.24-35.28,42v9a6.54,6.54,0,0,0,6.54,6.53h8.66l34.4-41,34.4,41h8.66a6.54,6.54,0,0,0,6.53-6.53Z" transform="translate(-28.32 -89.27)"/><polygon class="cls-4" points="139.96 85.27 105.47 126.36 139.96 167.45 139.96 85.27"/><polygon class="cls-4" points="90.36 108.36 128.06 63.45 52.66 63.45 90.36 108.36"/><polygon class="cls-4" points="40.77 167.45 75.26 126.36 40.77 85.27 40.77 167.45"/><path class="cls-4" d="M118.69,276.6a5.7,5.7,0,0,1,5.11-3.18h28.29l-33.4-39.8-33.41,39.8h28.29A5.73,5.73,0,0,1,118.69,276.6Z" transform="translate(-28.32 -89.27)"/><path class="cls-5" d="M67.92,151.54V266.89a7.71,7.71,0,0,0,7.71,7.71h37.94a4.54,4.54,0,0,1,4.53,4.52h1.17a4.54,4.54,0,0,1,4.53-4.52h38a7.72,7.72,0,0,0,7.71-7.71V151.54Zm88.47,1.18-37.7,44.91L81,152.72Zm-87.3,21.82,34.49,41.09L69.09,256.72Zm54.71,98.88a5.7,5.7,0,0,0-5.11,3.18,5.73,5.73,0,0,0-5.12-3.18H85.28l33.41-39.8,33.4,39.8Zm44.48-16.7-34.49-41.09,34.49-41.09Zm0-83.37-35.28,42-.2.25,35.48,42.27v9a6.54,6.54,0,0,1-6.53,6.53h-8.66l-34.4-41-34.4,41H75.63a6.54,6.54,0,0,1-6.54-6.53v-9l35.28-42,.21-.24L69.09,173.35V152.72H80l38.7,46.1,38.69-46.1h10.9Z" transform="translate(-28.32 -89.27)"/><path class="cls-6" d="M202.9,280.25c-2.88,0-6,1.54-6,4.91h0l-.34,4.49c-4.18-1-10.5-2.56-23.3-2.56A120.31,120.31,0,0,0,152.6,289a193.19,193.19,0,0,1-33.91,2.64A193.1,193.1,0,0,1,84.78,289a120.43,120.43,0,0,0-20.67-1.88c-12.8,0-19.12,1.53-23.29,2.56l-.34-4.49h0c0-3.37-3.12-4.91-6-4.91-3,0-6.15,1.7-6.15,4.95,0,4.17,2.91,8.79,5.25,12.5a38.17,38.17,0,0,1,2.34,4c1.75,3.83,3.08,5.35,6.86,4.86a93.79,93.79,0,0,1,10.49-.12c3.6.06,8.08.13,13.76.13,7.78,0,20,1.13,30.84,2.12,9,.83,16.72,1.54,20.83,1.54s11.85-.71,20.82-1.54c10.81-1,23.06-2.12,30.85-2.12,5.67,0,10.15-.07,13.76-.13a93.86,93.86,0,0,1,10.49.12c3.76.49,5.11-1,6.85-4.86a40,40,0,0,1,2.34-4c2.34-3.71,5.26-8.33,5.26-12.5,0-3.25-3.1-4.95-6.16-4.95m5,4.95a12.05,12.05,0,0,1-.9,4.18c-.24.21-1.27.93-4,1.11l.54-4.21-.72.06c-2.67.22-4.65-.76-4.75-1.14,0-5.28,9.81-4.88,9.81,0M198,286.6a8.7,8.7,0,0,0,4.22.95l-.38,3h-.13a17.24,17.24,0,0,1-4-.61Zm-162.4,3.93-.39-3a8.39,8.39,0,0,0,4.22-1l.25,3.34a17.16,17.16,0,0,1-4,.61Zm3.73-5.34c-.09.39-2.06,1.36-4.75,1.15l-.72-.06.54,4.21c-2.72-.18-3.74-.9-4-1.11a12,12,0,0,1-.89-4.18c0-4.88,9.8-5.28,9.8,0m163.51,11.88a39.2,39.2,0,0,0-2.41,4.14c-1.73,3.77-2.78,4.55-5.64,4.19a91.65,91.65,0,0,0-10.66-.13c-3.6.05-8.08.12-13.74.12-7.84,0-20.12,1.13-31,2.13-8.56.79-16.66,1.53-20.71,1.53s-12.15-.74-20.72-1.53c-10.83-1-23.12-2.13-30.95-2.13-5.67,0-10.14-.07-13.74-.12a91.9,91.9,0,0,0-10.67.13c-2.85.37-3.91-.42-5.63-4.19a39.51,39.51,0,0,0-2.42-4.14,61.71,61.71,0,0,1-3.45-6,13.35,13.35,0,0,0,4.58.65,22.91,22.91,0,0,0,5.33-.9c4.13-1,10.36-2.54,23.09-2.54a118.77,118.77,0,0,1,20.49,1.87,195,195,0,0,0,34.09,2.65,195,195,0,0,0,34.09-2.65,118.64,118.64,0,0,1,20.48-1.87c12.73,0,19,1.53,23.09,2.54a23,23,0,0,0,5.33.9,13.3,13.3,0,0,0,4.58-.65,57.85,57.85,0,0,1-3.45,6" transform="translate(-28.32 -89.27)"/><path class="cls-4" d="M96.17,295.67A1.41,1.41,0,0,0,95,295l-.57,0L94,299.67l.3,0a2.38,2.38,0,0,0,1.14-.11,1.39,1.39,0,0,0,.65-.68,3.87,3.87,0,0,0,.33-1.37A3.42,3.42,0,0,0,96.17,295.67Z" transform="translate(-28.32 -89.27)"/><path class="cls-4" d="M137.05,296.05a1.4,1.4,0,0,0-1.31-.48l-.57.06.44,4.75.3,0a2.34,2.34,0,0,0,1.1-.3,1.44,1.44,0,0,0,.51-.79,3.85,3.85,0,0,0,.09-1.41A3.41,3.41,0,0,0,137.05,296.05Z" transform="translate(-28.32 -89.27)"/><path class="cls-4" d="M144.76,295.35a1.39,1.39,0,0,0-1.31-.49l-.57.06.43,4.75.3,0a2.41,2.41,0,0,0,1.1-.31,1.36,1.36,0,0,0,.52-.79,4.1,4.1,0,0,0,.08-1.41A3.41,3.41,0,0,0,144.76,295.35Z" transform="translate(-28.32 -89.27)"/><polygon class="cls-4" points="57.03 211.48 59.22 211.67 58.46 207.84 57.03 211.48"/><path class="cls-4" d="M201.81,290.53l.38-3a8.72,8.72,0,0,1-4.22-.95l-.25,3.33a17.24,17.24,0,0,0,4,.61Z" transform="translate(-28.32 -89.27)"/><path class="cls-4" d="M35.57,290.53h.12a17.16,17.16,0,0,0,4-.61l-.25-3.34a8.39,8.39,0,0,1-4.22,1Z" transform="translate(-28.32 -89.27)"/><polygon class="cls-4" points="122.14 211.62 124.34 211.43 122.95 207.78 122.14 211.62"/><path class="cls-4" d="M33.83,286.28l.72.06c2.69.21,4.66-.76,4.75-1.15,0-5.27-9.8-4.87-9.8,0a12,12,0,0,0,.89,4.18c.24.21,1.26.93,4,1.11Z" transform="translate(-28.32 -89.27)"/><polygon class="cls-4" points="19.47 210.55 21.68 210.5 20.5 206.77 19.47 210.55"/><path class="cls-4" d="M42.67,293.46h-.22l.28,4.71H43a1.12,1.12,0,0,0,1-.65,3.57,3.57,0,0,0,.25-1.82,3.52,3.52,0,0,0-.46-1.75A1.18,1.18,0,0,0,42.67,293.46Z" transform="translate(-28.32 -89.27)"/><path class="cls-4" d="M193.25,293.34l-.58,0-.25,4.77h.31a2.41,2.41,0,0,0,1.13-.14,1.42,1.42,0,0,0,.62-.71,3.84,3.84,0,0,0,.29-1.38,3.44,3.44,0,0,0-.3-1.86A1.38,1.38,0,0,0,193.25,293.34Z" transform="translate(-28.32 -89.27)"/><path class="cls-4" d="M196.35,290.81c-4.12-1-10.36-2.54-23.09-2.54a118.64,118.64,0,0,0-20.48,1.87,195,195,0,0,1-34.09,2.65,195,195,0,0,1-34.09-2.65,118.77,118.77,0,0,0-20.49-1.87c-12.73,0-19,1.53-23.09,2.54a22.91,22.91,0,0,1-5.33.9,13.35,13.35,0,0,1-4.58-.65,61.71,61.71,0,0,0,3.45,6A39.51,39.51,0,0,1,37,301.21c1.72,3.77,2.78,4.56,5.63,4.19a91.9,91.9,0,0,1,10.67-.13c3.6.05,8.07.12,13.74.12,7.83,0,20.12,1.13,31,2.13,8.57.79,16.66,1.53,20.72,1.53s12.15-.74,20.71-1.53c10.84-1,23.12-2.13,31-2.13,5.66,0,10.14-.07,13.74-.12a91.65,91.65,0,0,1,10.66.13c2.86.36,3.91-.42,5.64-4.19a39.2,39.2,0,0,1,2.41-4.14,57.85,57.85,0,0,0,3.45-6,13.35,13.35,0,0,1-4.58.65A23,23,0,0,1,196.35,290.81ZM44.52,298.5a5.53,5.53,0,0,1-1.74.3l.18,3a4.52,4.52,0,0,0,.14,1.11l.28.35a1.23,1.23,0,0,0,.68.09l0,.3-3.7.22,0-.29a1.18,1.18,0,0,0,.68-.18l.23-.39a4.7,4.7,0,0,0,0-1.11l-.42-7.06a5.12,5.12,0,0,0-.14-1.11l-.28-.35a1.26,1.26,0,0,0-.69-.09l0-.3,3.17-.19a2.77,2.77,0,0,1,2.31.69,3.13,3.13,0,0,1,.8,2.05,3.51,3.51,0,0,1-.32,1.84A2.26,2.26,0,0,1,44.52,298.5Zm5.47,5v-.3h.15a.79.79,0,0,0,.59-.2.47.47,0,0,0,.11-.37l0-.3-.17-.6-.42-1.35-2.58.07-.28,1.06a3.73,3.73,0,0,0-.13.88.85.85,0,0,0,.26.67,1.38,1.38,0,0,0,.72.18v.3l-2.43.05v-.3a1,1,0,0,0,.64-.49,7.63,7.63,0,0,0,.58-1.66l2.41-8.76h.11l2.84,8.88a6.28,6.28,0,0,0,.65,1.59.72.72,0,0,0,.52.27v.3Zm9-10.09a13.18,13.18,0,0,0-.65,1.9l-2.44,8.35h-.17L53.15,295a14.08,14.08,0,0,0-.62-1.84.75.75,0,0,0-.58-.34v-.3l3.49,0v.29h-.12a.87.87,0,0,0-.64.18l-.13.35,0,.35q0,.19.3,1l1.61,5.42,1.39-4.85c.17-.59.27-1,.31-1.18a2.67,2.67,0,0,0,.06-.51.82.82,0,0,0-.1-.42l-.25-.28a1.12,1.12,0,0,0-.62-.13v-.3l2.4,0v.3A1.22,1.22,0,0,0,59,293.38Zm7.37,10H59.89v-.3h.24a.77.77,0,0,0,.51-.17.7.7,0,0,0,.22-.38,5.35,5.35,0,0,0,0-1v-7.17a5.83,5.83,0,0,0-.07-1.05l-.23-.37a.77.77,0,0,0-.49-.15h-.24v-.3h3.88v.3h-.32a.72.72,0,0,0-.51.17.66.66,0,0,0-.22.38,4.9,4.9,0,0,0-.06,1v6.94a4.61,4.61,0,0,0,.07,1.07l.25.34a1.73,1.73,0,0,0,.65.07h.61a1.56,1.56,0,0,0,1-.3,2.58,2.58,0,0,0,.67-1,10.31,10.31,0,0,0,.53-1.95h.22Zm4.73-10.48h-.24a.7.7,0,0,0-.75.53,4.11,4.11,0,0,0-.09,1l-.23,7.17a4.67,4.67,0,0,0,0,1.05l.23.37a.69.69,0,0,0,.48.18h.24v.29L67,303.34V303h.24a.73.73,0,0,0,.52-.15.72.72,0,0,0,.22-.38,4.47,4.47,0,0,0,.1-1l.22-7.17a5.79,5.79,0,0,0,0-1l-.23-.37a.69.69,0,0,0-.48-.17h-.25v-.3l3.82.12ZM75.73,303a2.16,2.16,0,0,1-1.86.89,2.05,2.05,0,0,1-.65-.15,3.59,3.59,0,0,1-.74-.43.93.93,0,0,0-.42-.19l-.3.15a1.11,1.11,0,0,0-.28.47h-.2l.23-4.11h.2a5.82,5.82,0,0,0,.76,2.7,1.89,1.89,0,0,0,1.4,1,1.13,1.13,0,0,0,1-.43,1.93,1.93,0,0,0,.42-1.12,2.17,2.17,0,0,0-.09-.76,2.58,2.58,0,0,0-.38-.71,7.7,7.7,0,0,0-.94-.9,8.62,8.62,0,0,1-1.36-1.33,3.66,3.66,0,0,1-.6-1.18,4,4,0,0,1-.16-1.41,3.77,3.77,0,0,1,.77-2.18,1.91,1.91,0,0,1,1.66-.83,2,2,0,0,1,.68.17,3,3,0,0,1,.6.4,1.35,1.35,0,0,0,.49.29l.23-.12a2.17,2.17,0,0,0,.19-.61h.15l-.14,3.63h-.22a4.63,4.63,0,0,0-.64-2.24,1.7,1.7,0,0,0-1.28-.91,1,1,0,0,0-.89.39,1.73,1.73,0,0,0-.38,1,1.9,1.9,0,0,0,.08.65,2.31,2.31,0,0,0,.46.77,10.32,10.32,0,0,0,1.11,1,5.67,5.67,0,0,1,1.62,1.87,4.24,4.24,0,0,1-.51,4.24Zm5.5.31.21.38a.75.75,0,0,0,.48.2l.24,0,0,.29-3.81-.29,0-.29.24,0a.81.81,0,0,0,.53-.13.92.92,0,0,0,.25-.37,5,5,0,0,0,.13-1l.64-8.39-.53,0a1.22,1.22,0,0,0-1.1.39,3.75,3.75,0,0,0-.73,1.81l-.21,0,.22-2.94,6.54.49-.22,2.94h-.19a6.24,6.24,0,0,0-.27-1.49,1.88,1.88,0,0,0-.52-.76,1.35,1.35,0,0,0-.71-.19l-.54-.05-.63,8.39A5.41,5.41,0,0,0,81.23,303.31Zm9.42,1.61-3.52-.3,0-.3.15,0a.83.83,0,0,0,.61-.13.54.54,0,0,0,.14-.36v-.29c0-.05,0-.26-.11-.62l-.27-1.39-2.57-.22-.4,1a3.38,3.38,0,0,0-.22.86.86.86,0,0,0,.19.7,1.62,1.62,0,0,0,.7.25l0,.3-2.42-.21,0-.3a1,1,0,0,0,.69-.43A7.21,7.21,0,0,0,84.4,302l3.35-8.45h.1l1.86,9.14a6.13,6.13,0,0,0,.48,1.64.73.73,0,0,0,.49.34Zm7.91.73-2.29-.21-1.89-5.16-.47,0-.28,3a4.81,4.81,0,0,0,0,1.11l.22.39a1.23,1.23,0,0,0,.67.2l0,.3-3.72-.34,0-.3a1.09,1.09,0,0,0,.69-.08l.29-.34a4.92,4.92,0,0,0,.17-1.1l.65-7a5.61,5.61,0,0,0,0-1.12l-.22-.39a1.26,1.26,0,0,0-.67-.2l0-.29,3.37.31a5.3,5.3,0,0,1,1.91.44,2.14,2.14,0,0,1,.9,1.1,3.56,3.56,0,0,1,.23,1.75,3.3,3.3,0,0,1-.76,1.94,2.28,2.28,0,0,1-1.1.65l1.41,3.83a6.08,6.08,0,0,0,.4.94.82.82,0,0,0,.49.32Zm18-9.14-.24,0a.82.82,0,0,0-.53.13.87.87,0,0,0-.24.36,5.45,5.45,0,0,0-.14,1l-.54,7.17a4.67,4.67,0,0,0,0,1.05l.21.38a.66.66,0,0,0,.48.19l.23,0,0,.3-3.8-.29,0-.3.24,0a.72.72,0,0,0,.53-.13.84.84,0,0,0,.24-.37,4.53,4.53,0,0,0,.14-1l.61-8.06-3.54,9.71H110l-2.09-10.07-.58,7.66c0,.54-.06.86,0,1a1.26,1.26,0,0,0,.25.67.94.94,0,0,0,.72.31l0,.3-2.48-.19,0-.3h.07a.92.92,0,0,0,.46-.08l.35-.31a1.87,1.87,0,0,0,.2-.57c0-.06,0-.33.08-.82l.52-6.88a4.58,4.58,0,0,0,0-1l-.21-.38a.75.75,0,0,0-.48-.19h-.19a1.2,1.2,0,0,0-.72.55,11.61,11.61,0,0,0-.84,1.82l-3.26,8.07-.18,0-1.71-8.86a12,12,0,0,0-.44-1.89.72.72,0,0,0-.54-.39l0-.3,3.48.32,0,.29h-.11a.87.87,0,0,0-.66.12l-.16.34,0,.34c0,.14.08.5.19,1.08l1.06,5.55,1.87-4.68c.22-.57.37-.95.43-1.14s.08-.37.1-.5a.85.85,0,0,0-.05-.43l-.23-.31a1.09,1.09,0,0,0-.59-.19l0-.3,2.39.22v0l2.89.23L111,303l2.53-7,3,.23Zm8.69,2.36a5.92,5.92,0,0,0-.46-1.44,1.75,1.75,0,0,0-.61-.68,1.23,1.23,0,0,0-.73-.1l-.54,0,.47,8.39a4.81,4.81,0,0,0,.12,1l.27.35a.7.7,0,0,0,.49.14l.25,0v.3l-3.81.21,0-.29.24,0a.78.78,0,0,0,.5-.19.75.75,0,0,0,.2-.4,4.94,4.94,0,0,0,0-1l-.48-8.4-.52,0a1.26,1.26,0,0,0-1,.53,3.85,3.85,0,0,0-.48,1.89h-.2l-.17-3,6.54-.37.17,2.95Zm7.41,7.35-6.28.53,0-.3.24,0a.79.79,0,0,0,.5-.21.75.75,0,0,0,.18-.4,5.46,5.46,0,0,0,0-1l-.6-7.14a7.69,7.69,0,0,0-.1-.91.79.79,0,0,0-.24-.41.71.71,0,0,0-.57-.18l-.25,0,0-.3,6.09-.51.27,3.21-.2,0A5.22,5.22,0,0,0,131,297a1.71,1.71,0,0,0-.86-.69,2.88,2.88,0,0,0-1.14-.05l-.75.06.37,4.43.15,0a1,1,0,0,0,.94-.73,5.36,5.36,0,0,0,.24-1.95h.2l.48,5.69h-.2a6.43,6.43,0,0,0-.4-1.5,1.77,1.77,0,0,0-.55-.75,1.25,1.25,0,0,0-.81-.14l.25,3.06a6.71,6.71,0,0,0,.15,1.09l.22.31a.67.67,0,0,0,.46.1l.43,0a2.1,2.1,0,0,0,1.58-.84,4.54,4.54,0,0,0,.7-2.22l.2,0Zm20.27-1.83,0-.29H153a.85.85,0,0,0,.58-.23.49.49,0,0,0,.08-.37l0-.3a5.54,5.54,0,0,0-.22-.59l-.49-1.32-2.57.21-.22,1.09a3.34,3.34,0,0,0-.08.88.87.87,0,0,0,.31.66,1.42,1.42,0,0,0,.72.13l0,.3-2.17.18h0l-2.29.21-2.79-4.74-.48,0,.28,3.05a4.92,4.92,0,0,0,.17,1.1l.29.34a1.19,1.19,0,0,0,.69.08l0,.29-3.6.33h0l-2.29.21-2.8-4.73-.47,0,.28,3a4.8,4.8,0,0,0,.17,1.1l.29.35a1.21,1.21,0,0,0,.69.07l0,.3-3.72.34,0-.3a1.2,1.2,0,0,0,.67-.2l.22-.39a4.27,4.27,0,0,0,0-1.11l-.64-7a4.7,4.7,0,0,0-.18-1.1l-.29-.34a1.18,1.18,0,0,0-.69-.08l0-.29,3.38-.31a5,5,0,0,1,2,.1,2.07,2.07,0,0,1,1.08.91,3.56,3.56,0,0,1,.55,1.68,3.29,3.29,0,0,1-.4,2,2.26,2.26,0,0,1-1,.84l2.08,3.52a5.44,5.44,0,0,0,.57.84.78.78,0,0,0,.49.22,1.09,1.09,0,0,0,.59-.19l.22-.38a4.9,4.9,0,0,0,0-1.12l-.64-7a5.05,5.05,0,0,0-.17-1.11l-.29-.34a1.21,1.21,0,0,0-.69-.07l0-.3,3.38-.31a4.92,4.92,0,0,1,1.95.1,2.07,2.07,0,0,1,1.09.92,3.63,3.63,0,0,1,.55,1.68,3.29,3.29,0,0,1-.4,2,2.3,2.3,0,0,1-1,.84l2.08,3.51a5.2,5.2,0,0,0,.57.85l.37.19a1,1,0,0,0,.52-.49,7.68,7.68,0,0,0,.48-1.69l1.88-8.89h.1l3.37,8.69a6.46,6.46,0,0,0,.75,1.54.75.75,0,0,0,.54.25l0,.29ZM176,303.34h-3.53V303h.15a.83.83,0,0,0,.6-.17.58.58,0,0,0,.11-.37l0-.3c0-.05-.06-.25-.16-.6l-.39-1.36h-2.58l-.3,1.07a2.94,2.94,0,0,0-.15.88.84.84,0,0,0,.24.67,1.59,1.59,0,0,0,.72.19v.3h-2.34l-3.81.22v-.3h.23a.69.69,0,0,0,.7-.6,5.16,5.16,0,0,0,0-1l-.47-8.07-2.22,10.09h-.13l-3.4-9.7.44,7.67c0,.54.06.87.08,1a1.25,1.25,0,0,0,.35.64.93.93,0,0,0,.74.21l0,.29-2.49.15,0-.3h.08a.86.86,0,0,0,.44-.15l.3-.35a2.27,2.27,0,0,0,.13-.59c0-.06,0-.34,0-.82l-.4-6.89a6,6,0,0,0-.11-1l-.27-.35a.71.71,0,0,0-.49-.13l-.24,0V293l3-.17,2.47,7.06,1.56-7.3,3-.17v.3h-.23a.68.68,0,0,0-.7.59,3.87,3.87,0,0,0,0,1l.41,7.18a5.74,5.74,0,0,0,.12,1l.26.35a.8.8,0,0,0,.5.13h.17v0a1.05,1.05,0,0,0,.65-.48,8.7,8.7,0,0,0,.62-1.65l2.62-8.7h.1l2.63,8.94a7.08,7.08,0,0,0,.61,1.61.73.73,0,0,0,.52.28Zm6.07-7.92h-.2a5.87,5.87,0,0,0-.37-1.46,1.8,1.8,0,0,0-.58-.72,1.23,1.23,0,0,0-.71-.15h-.54l0,8.41a4.46,4.46,0,0,0,.06,1l.24.37a.74.74,0,0,0,.49.16h.24v.3l-3.83,0v-.3h.24a.76.76,0,0,0,.51-.16.81.81,0,0,0,.23-.39,7,7,0,0,0,.06-1l0-8.41h-.53a1.22,1.22,0,0,0-1.07.46,3.85,3.85,0,0,0-.61,1.86h-.2v-3l6.56,0Zm6.63,8.07-6.31-.12v-.3h.24a.76.76,0,0,0,.51-.16.8.8,0,0,0,.23-.38,5.25,5.25,0,0,0,.07-1l.13-7.17c0-.5,0-.8,0-.91a1,1,0,0,0-.19-.44.77.77,0,0,0-.56-.24h-.24v-.3l6.11.11-.06,3.22h-.2a5.15,5.15,0,0,0-.41-1.7,1.66,1.66,0,0,0-.78-.77,2.78,2.78,0,0,0-1.13-.17h-.76l-.07,4.43h.14a1,1,0,0,0,1-.64,5.34,5.34,0,0,0,.43-1.91h.21l-.11,5.71h-.2a6,6,0,0,0-.24-1.53,1.67,1.67,0,0,0-.47-.81,1.36,1.36,0,0,0-.8-.22l0,3.07a6.88,6.88,0,0,0,0,1.1l.19.34a.61.61,0,0,0,.44.13h.44a2,2,0,0,0,1.65-.68,4.54,4.54,0,0,0,.93-2.14h.2Zm8.55.39-2.29-.12-2.09-5.09-.48,0-.16,3.06a5.21,5.21,0,0,0,0,1.12l.24.37a1.13,1.13,0,0,0,.67.17v.3l-3.73-.19v-.3a1.17,1.17,0,0,0,.7-.11l.27-.35a5.13,5.13,0,0,0,.13-1.1l.37-7.07a4.59,4.59,0,0,0,0-1.12l-.23-.37a1.24,1.24,0,0,0-.68-.18v-.29l3.39.17a5.21,5.21,0,0,1,1.92.38,2.12,2.12,0,0,1,1,1.06,3.63,3.63,0,0,1,.29,1.74,3.25,3.25,0,0,1-.68,2,2.26,2.26,0,0,1-1.08.7l1.56,3.78a5.07,5.07,0,0,0,.44.91.7.7,0,0,0,.5.3Z" transform="translate(-28.32 -89.27)"/><path class="cls-4" d="M198.07,285.2c.1.38,2.08,1.36,4.75,1.14l.72-.06-.54,4.21c2.71-.18,3.74-.9,4-1.11a12.05,12.05,0,0,0,.9-4.18C207.88,280.32,198.07,279.92,198.07,285.2Z" transform="translate(-28.32 -89.27)"/><polygon class="cls-4" points="142.04 210.37 144.24 210.37 143.16 206.61 142.04 210.37"/><path class="cls-6" d="M45.2,293.51a2.77,2.77,0,0,0-2.31-.69l-3.17.19,0,.3a1.26,1.26,0,0,1,.69.09l.28.35a5.12,5.12,0,0,1,.14,1.11l.42,7.06a4.7,4.7,0,0,1,0,1.11l-.23.39a1.18,1.18,0,0,1-.68.18l0,.29,3.7-.22,0-.3a1.23,1.23,0,0,1-.68-.09l-.28-.35a4.52,4.52,0,0,1-.14-1.11l-.18-3a5.53,5.53,0,0,0,1.74-.3,2.26,2.26,0,0,0,1.16-1.1,3.51,3.51,0,0,0,.32-1.84,3.13,3.13,0,0,0-.8-2.05m-1.22,4a1.12,1.12,0,0,1-1,.65h-.28l-.28-4.71h.22a1.18,1.18,0,0,1,1.1.5,3.52,3.52,0,0,1,.46,1.75,3.57,3.57,0,0,1-.25,1.82m9,5.28a6.28,6.28,0,0,1-.65-1.59l-2.84-8.88h-.11L47,301.11a7.63,7.63,0,0,1-.58,1.66,1,1,0,0,1-.64.49v.3l2.43-.05v-.3a1.38,1.38,0,0,1-.72-.18.85.85,0,0,1-.26-.67,3.73,3.73,0,0,1,.13-.88l.28-1.06,2.58-.07.42,1.35.17.6,0,.3a.47.47,0,0,1-.11.37.79.79,0,0,1-.59.2H50v.3l3.53-.09v-.3a.72.72,0,0,1-.52-.27m-5.2-3,1-3.78L50,299.77Zm11.92-7.38v.3a1.22,1.22,0,0,0-.71.64,13.18,13.18,0,0,0-.65,1.9l-2.44,8.35h-.17L53.15,295a14.08,14.08,0,0,0-.62-1.84.75.75,0,0,0-.58-.34v-.3l3.49,0v.29h-.12a.87.87,0,0,0-.64.18l-.13.35,0,.35q0,.19.3,1l1.61,5.42,1.39-4.85c.17-.59.27-1,.31-1.18a2.67,2.67,0,0,0,.06-.51.82.82,0,0,0-.1-.42l-.25-.28a1.12,1.12,0,0,0-.62-.13v-.3Zm6.71,7.07h.22l-.27,3.83H59.89v-.3h.24a.77.77,0,0,0,.51-.17.7.7,0,0,0,.22-.38,5.35,5.35,0,0,0,0-1v-7.17a5.83,5.83,0,0,0-.07-1.05l-.23-.37a.77.77,0,0,0-.49-.15h-.24v-.3h3.88v.3h-.32a.72.72,0,0,0-.51.17.66.66,0,0,0-.22.38,4.9,4.9,0,0,0-.06,1v6.94a4.61,4.61,0,0,0,.07,1.07l.25.34a1.73,1.73,0,0,0,.65.07h.61a1.56,1.56,0,0,0,1-.3,2.58,2.58,0,0,0,.67-1,10.31,10.31,0,0,0,.53-1.95m.87-7.07,3.82.12v.3h-.24a.7.7,0,0,0-.75.53,4.11,4.11,0,0,0-.09,1l-.23,7.17a4.67,4.67,0,0,0,0,1.05l.23.37a.69.69,0,0,0,.48.18h.24v.29L67,303.34V303h.24a.73.73,0,0,0,.52-.15.72.72,0,0,0,.22-.38,4.47,4.47,0,0,0,.1-1l.22-7.17a5.79,5.79,0,0,0,0-1l-.23-.37a.69.69,0,0,0-.48-.17h-.25Zm8.95,6.32a4.24,4.24,0,0,1-.51,4.24,2.16,2.16,0,0,1-1.86.89,2.05,2.05,0,0,1-.65-.15,3.59,3.59,0,0,1-.74-.43.93.93,0,0,0-.42-.19l-.3.15a1.11,1.11,0,0,0-.28.47h-.2l.23-4.11h.2a5.82,5.82,0,0,0,.76,2.7,1.89,1.89,0,0,0,1.4,1,1.13,1.13,0,0,0,1-.43,1.93,1.93,0,0,0,.42-1.12,2.17,2.17,0,0,0-.09-.76,2.58,2.58,0,0,0-.38-.71,7.7,7.7,0,0,0-.94-.9,8.62,8.62,0,0,1-1.36-1.33,3.66,3.66,0,0,1-.6-1.18,4,4,0,0,1-.16-1.41,3.77,3.77,0,0,1,.77-2.18,1.91,1.91,0,0,1,1.66-.83,2,2,0,0,1,.68.17,3,3,0,0,1,.6.4,1.35,1.35,0,0,0,.49.29l.23-.12a2.17,2.17,0,0,0,.19-.61h.15l-.14,3.63h-.22a4.63,4.63,0,0,0-.64-2.24,1.7,1.7,0,0,0-1.28-.91,1,1,0,0,0-.89.39,1.73,1.73,0,0,0-.38,1,1.9,1.9,0,0,0,.08.65,2.31,2.31,0,0,0,.46.77,10.32,10.32,0,0,0,1.11,1,5.67,5.67,0,0,1,1.62,1.87m5,3.5a5.41,5.41,0,0,0,0,1.05l.21.38a.75.75,0,0,0,.48.2l.24,0,0,.29-3.81-.29,0-.29.24,0a.81.81,0,0,0,.53-.13.92.92,0,0,0,.25-.37,5,5,0,0,0,.13-1l.64-8.39-.53,0a1.22,1.22,0,0,0-1.1.39,3.75,3.75,0,0,0-.73,1.81l-.21,0,.22-2.94,6.54.49-.22,2.94h-.19a6.24,6.24,0,0,0-.27-1.49,1.88,1.88,0,0,0-.52-.76,1.35,1.35,0,0,0-.71-.19l-.54-.05Zm8.46.39-1.86-9.14h-.1L84.4,302a7.21,7.21,0,0,1-.76,1.58A1,1,0,0,1,83,304l0,.3,2.42.21,0-.3a1.62,1.62,0,0,1-.7-.25.86.86,0,0,1-.19-.7,3.38,3.38,0,0,1,.22-.86l.4-1,2.57.22.27,1.39c.07.36.1.57.11.62v.29a.54.54,0,0,1-.14.36.83.83,0,0,1-.61.13l-.15,0,0,.3,3.52.3,0-.29a.73.73,0,0,1-.49-.34,6.13,6.13,0,0,1-.48-1.64m-4.36-1.9,1.43-3.64.77,3.83ZM97.7,304.1l-1.41-3.83a2.28,2.28,0,0,0,1.1-.65,3.3,3.3,0,0,0,.76-1.94,3.56,3.56,0,0,0-.23-1.75,2.14,2.14,0,0,0-.9-1.1,5.3,5.3,0,0,0-1.91-.44l-3.37-.31,0,.29a1.26,1.26,0,0,1,.67.2l.22.39a5.61,5.61,0,0,1,0,1.12l-.65,7a4.92,4.92,0,0,1-.17,1.1l-.29.34a1.09,1.09,0,0,1-.69.08l0,.3,3.72.34,0-.3a1.23,1.23,0,0,1-.67-.2l-.22-.39a4.81,4.81,0,0,1,0-1.11l.28-3,.47,0,1.89,5.16,2.29.21,0-.29a.82.82,0,0,1-.49-.32,6.08,6.08,0,0,1-.4-.94m-1.65-5.19a1.39,1.39,0,0,1-.65.68,2.38,2.38,0,0,1-1.14.11l-.3,0,.44-4.76.57,0a1.41,1.41,0,0,1,1.2.71,3.42,3.42,0,0,1,.21,1.87,3.87,3.87,0,0,1-.33,1.37M113.57,296l3,.23,0,.29-.24,0a.82.82,0,0,0-.53.13.87.87,0,0,0-.24.36,5.45,5.45,0,0,0-.14,1l-.54,7.17a4.67,4.67,0,0,0,0,1.05l.21.38a.66.66,0,0,0,.48.19l.23,0,0,.3-3.8-.29,0-.3.24,0a.72.72,0,0,0,.53-.13.84.84,0,0,0,.24-.37,4.53,4.53,0,0,0,.14-1l.61-8.06-3.54,9.71H110l-2.09-10.07-.58,7.66c0,.54-.06.86,0,1a1.26,1.26,0,0,0,.25.67.94.94,0,0,0,.72.31l0,.3-2.48-.19,0-.3h.07a.92.92,0,0,0,.46-.08l.35-.31a1.87,1.87,0,0,0,.2-.57c0-.06,0-.33.08-.82l.52-6.88a4.58,4.58,0,0,0,0-1l-.21-.38a.75.75,0,0,0-.48-.19h-.19a1.2,1.2,0,0,0-.72.55,11.61,11.61,0,0,0-.84,1.82l-3.26,8.07-.18,0-1.71-8.86a12,12,0,0,0-.44-1.89.72.72,0,0,0-.54-.39l0-.3,3.48.32,0,.29h-.11a.87.87,0,0,0-.66.12l-.16.34,0,.34c0,.14.08.5.19,1.08l1.06,5.55,1.87-4.68c.22-.57.37-.95.43-1.14s.08-.37.1-.5a.85.85,0,0,0-.05-.43l-.23-.31a1.09,1.09,0,0,0-.59-.19l0-.3,2.39.22v0l2.89.23L111,303Zm11.66-.08.17,2.95h-.2a5.92,5.92,0,0,0-.46-1.44,1.75,1.75,0,0,0-.61-.68,1.23,1.23,0,0,0-.73-.1l-.54,0,.47,8.39a4.81,4.81,0,0,0,.12,1l.27.35a.7.7,0,0,0,.49.14l.25,0v.3l-3.81.21,0-.29.24,0a.78.78,0,0,0,.5-.19.75.75,0,0,0,.2-.4,4.94,4.94,0,0,0,0-1l-.48-8.4-.52,0a1.26,1.26,0,0,0-1,.53,3.85,3.85,0,0,0-.48,1.89h-.2l-.17-3Zm7.22,6.85.2,0,0,3.48-6.28.53,0-.3.24,0a.79.79,0,0,0,.5-.21.75.75,0,0,0,.18-.4,5.46,5.46,0,0,0,0-1l-.6-7.14a7.69,7.69,0,0,0-.1-.91.79.79,0,0,0-.24-.41.71.71,0,0,0-.57-.18l-.25,0,0-.3,6.09-.51.27,3.21-.2,0A5.22,5.22,0,0,0,131,297a1.71,1.71,0,0,0-.86-.69,2.88,2.88,0,0,0-1.14-.05l-.75.06.37,4.43.15,0a1,1,0,0,0,.94-.73,5.36,5.36,0,0,0,.24-1.95h.2l.48,5.69h-.2a6.43,6.43,0,0,0-.4-1.5,1.77,1.77,0,0,0-.55-.75,1.25,1.25,0,0,0-.81-.14l.25,3.06a6.71,6.71,0,0,0,.15,1.09l.22.31a.67.67,0,0,0,.46.1l.43,0a2.1,2.1,0,0,0,1.58-.84,4.54,4.54,0,0,0,.7-2.22m23.38.8a6.46,6.46,0,0,1-.75-1.54l-3.37-8.69h-.1l-1.88,8.89a7.68,7.68,0,0,1-.48,1.69,1,1,0,0,1-.52.49l-.37-.19a5.2,5.2,0,0,1-.57-.85l-2.08-3.51a2.3,2.3,0,0,0,1-.84,3.29,3.29,0,0,0,.4-2,3.63,3.63,0,0,0-.55-1.68,2.07,2.07,0,0,0-1.09-.92,4.92,4.92,0,0,0-1.95-.1l-3.38.31,0,.3a1.21,1.21,0,0,1,.69.07l.29.34a5.05,5.05,0,0,1,.17,1.11l.64,7a4.9,4.9,0,0,1,0,1.12l-.22.38a1.09,1.09,0,0,1-.59.19.78.78,0,0,1-.49-.22,5.44,5.44,0,0,1-.57-.84L138,300.55a2.26,2.26,0,0,0,1-.84,3.29,3.29,0,0,0,.4-2,3.56,3.56,0,0,0-.55-1.68,2.07,2.07,0,0,0-1.08-.91,5,5,0,0,0-2-.1l-3.38.31,0,.29a1.18,1.18,0,0,1,.69.08l.29.34a4.7,4.7,0,0,1,.18,1.1l.64,7a4.27,4.27,0,0,1,0,1.11l-.22.39a1.2,1.2,0,0,1-.67.2l0,.3,3.72-.34,0-.3a1.21,1.21,0,0,1-.69-.07l-.29-.35a4.8,4.8,0,0,1-.17-1.1l-.28-3,.47,0,2.8,4.73,2.29-.21h0l3.6-.33,0-.29a1.19,1.19,0,0,1-.69-.08l-.29-.34a4.92,4.92,0,0,1-.17-1.1l-.28-3.05.48,0,2.79,4.74,2.29-.21h0l2.17-.18,0-.3a1.42,1.42,0,0,1-.72-.13.87.87,0,0,1-.31-.66,3.34,3.34,0,0,1,.08-.88l.22-1.09,2.57-.21.49,1.32a5.54,5.54,0,0,1,.22.59l0,.3a.49.49,0,0,1-.08.37.85.85,0,0,1-.58.23h-.15l0,.29,3.51-.29,0-.29a.75.75,0,0,1-.54-.25m-18.31-4.3a1.44,1.44,0,0,1-.51.79,2.34,2.34,0,0,1-1.1.3l-.3,0-.44-4.75.57-.06a1.4,1.4,0,0,1,1.31.48,3.41,3.41,0,0,1,.56,1.8,3.85,3.85,0,0,1-.09,1.41m7.71-.71a1.36,1.36,0,0,1-.52.79,2.41,2.41,0,0,1-1.1.31l-.3,0-.43-4.75.57-.06a1.39,1.39,0,0,1,1.31.49,3.41,3.41,0,0,1,.55,1.79,4.1,4.1,0,0,1-.08,1.41m5.24,2.34.8-3.84,1.4,3.65Zm24.4.26-2.63-8.94h-.1l-2.62,8.7a8.7,8.7,0,0,1-.62,1.65,1.05,1.05,0,0,1-.65.48v0h-.17a.8.8,0,0,1-.5-.13l-.26-.35a5.74,5.74,0,0,1-.12-1l-.41-7.18a3.87,3.87,0,0,1,0-1,.68.68,0,0,1,.7-.59h.23v-.3l-3,.17-1.56,7.3-2.47-7.06-3,.17v.3l.24,0a.71.71,0,0,1,.49.13l.27.35a6,6,0,0,1,.11,1l.4,6.89c0,.48,0,.76,0,.82a2.27,2.27,0,0,1-.13.59l-.3.35a.86.86,0,0,1-.44.15h-.08l0,.3,2.49-.15,0-.29a.93.93,0,0,1-.74-.21,1.25,1.25,0,0,1-.35-.64c0-.12-.05-.45-.08-1l-.44-7.67,3.4,9.7h.13L165,293.58l.47,8.07a5.16,5.16,0,0,1,0,1,.69.69,0,0,1-.7.6h-.23v.3l3.81-.22h2.34V303a1.59,1.59,0,0,1-.72-.19.84.84,0,0,1-.24-.67,2.94,2.94,0,0,1,.15-.88l.3-1.07h2.58l.39,1.36c.1.35.15.55.16.6l0,.3a.58.58,0,0,1-.11.37.83.83,0,0,1-.6.17h-.15v.3H176V303a.73.73,0,0,1-.52-.28,7.08,7.08,0,0,1-.61-1.61m-4.51-1.51,1.13-3.76,1.08,3.76Zm5.16-7.21,6.56,0v2.95h-.2a5.87,5.87,0,0,0-.37-1.46,1.8,1.8,0,0,0-.58-.72,1.23,1.23,0,0,0-.71-.15h-.54l0,8.41a4.46,4.46,0,0,0,.06,1l.24.37a.74.74,0,0,0,.49.16h.24v.3l-3.83,0v-.3h.24a.76.76,0,0,0,.51-.16.81.81,0,0,0,.23-.39,7,7,0,0,0,.06-1l0-8.41h-.53a1.22,1.22,0,0,0-1.07.46,3.85,3.85,0,0,0-.61,1.86h-.2ZM188.89,300h.2l-.39,3.46-6.31-.12v-.3h.24a.76.76,0,0,0,.51-.16.8.8,0,0,0,.23-.38,5.25,5.25,0,0,0,.07-1l.13-7.17c0-.5,0-.8,0-.91a1,1,0,0,0-.19-.44.77.77,0,0,0-.56-.24h-.24v-.3l6.11.11-.06,3.22h-.2a5.15,5.15,0,0,0-.41-1.7,1.66,1.66,0,0,0-.78-.77,2.78,2.78,0,0,0-1.13-.17h-.76l-.07,4.43h.14a1,1,0,0,0,1-.64,5.34,5.34,0,0,0,.43-1.91h.21l-.11,5.71h-.2a6,6,0,0,0-.24-1.53,1.67,1.67,0,0,0-.47-.81,1.36,1.36,0,0,0-.8-.22l0,3.07a6.88,6.88,0,0,0,0,1.1l.19.34a.61.61,0,0,0,.44.13h.44a2,2,0,0,0,1.65-.68,4.54,4.54,0,0,0,.93-2.14m7.88,3.26a5.07,5.07,0,0,1-.44-.91l-1.56-3.78a2.26,2.26,0,0,0,1.08-.7,3.25,3.25,0,0,0,.68-2,3.63,3.63,0,0,0-.29-1.74,2.12,2.12,0,0,0-1-1.06,5.21,5.21,0,0,0-1.92-.38l-3.39-.17v.29a1.24,1.24,0,0,1,.68.18l.23.37a4.59,4.59,0,0,1,0,1.12l-.37,7.07a5.13,5.13,0,0,1-.13,1.1l-.27.35a1.17,1.17,0,0,1-.7.11v.3l3.73.19v-.3a1.13,1.13,0,0,1-.67-.17l-.24-.37a5.21,5.21,0,0,1,0-1.12l.16-3.06.48,0,2.09,5.09,2.29.12,0-.3a.7.7,0,0,1-.5-.3m-2.29-6a1.42,1.42,0,0,1-.62.71,2.41,2.41,0,0,1-1.13.14h-.31l.25-4.77.58,0a1.38,1.38,0,0,1,1.22.66,3.44,3.44,0,0,1,.3,1.86,3.84,3.84,0,0,1-.29,1.38" transform="translate(-28.32 -89.27)"/></g></svg>